<svg xmlns="http://www.w3.org/2000/svg" viewBox="0 0 512 512"><path fill="#0bbdd0" d="M245 493A460 460 0 0 0 14 250l15-8c58-28 122-91 177-174l31-51c3-6 2-7 16 22 49 99 71 123 157 167l75 41c15 9 15 9 13 9-11 4-74 46-104 69a480 480 0 0 0-144 172c-2 5-2 5-5-3z"/><path fill="#f8f8f8" d="m3 307 151-111 106-57 97 43-119 174-54 75-102-65z"/><path fill="#191919" d="M166 425C86 377 7 323 3 315s-3-10 18-27c78-62 218-150 239-150 8 0 68 25 88 37 11 6 11 7 4 18-53 80-162 237-167 239-4 2-7 1-20-7zm22-6 146-210c19-28 19-27 13-30s-7-3-7 1l-2 4-6 8-6 6-1 2-4 7-6 8c-1 2-2 3-4 3-1 0-2 0-1 1a61 61 0 0 1-14 20l-3 5a1745 1745 0 0 1-56 73l-10 12-1 2a228 228 0 0 1-24 31l-7 7-1 2c1 1-20 27-21 27-2 0-20-14-20-15 1-2 0-2-2-1-3 0-20-11-20-14 0-2 0-2-2-2-3 1-19-10-19-13l-2-1c-2 1-18-10-18-13l-2-1c-3 0-17-11-17-12l2-8 5 3c8 6 8 6 16 0 5-4 5-4-1-8-3-3-4-4-3-6 1-5 2-5 7 0 7 5 7 5 11 2 8-6 8-6 0-12-2-2-2-3-2-5 1-4 2-4 8 1 7 5 7 5 12 0 6-5 6-5 0-9-3-2-4-3-4-5 0-3 0-3 7 1 8 5 8 5 12 1s4-5-1-8c-8-6-4-9 4-3 7 4 6 4 11 0l4-4-3-2-5-3c-2-1-2-4-1-5l6 2c6 4 7 4 11 1s4-4-1-7l-4-5c0-2 2-3 3-1 3 5 11 6 14 2l3-3-5-3c-8-5-5-7 3-3l6 4 3-3c4-4 4-4-2-7l-4-3c0-3 2-2 8 1 5 3 8 2 11-2 1-2 0-2-4-4s-5-4-4-5l7 2c5 3 6 3 8 2 4-3 3-5-2-7-3-2-4-2-3-3l6 2c6 2 6 2 8 1 3-3 2-4-2-7-8-4-5-6 3-2 5 3 5 3 8 1s2-4-2-6l-4-2c0-2 1-1 6 1 4 2 5 2 7 1 3-2 2-4-2-6l-3-3c0-2 1-1 6 1 5 4 5 4 11-1 5-5 5-6 1-8-5-2-5-2-3-3 1-2 2-2 6 0 10 5 12 1 3-5-4-2 0-2 4 1 4 2 5 2 7 1 2-2 1-3-3-5-3-1-4-2-3-3l5 2c2 2 4 2 6 2h2c0 3 11 7 13 5s1-2-3-4l-6-2-11-5 1-3 1-2 4 3c3 1 5 2 6 1 3-1 2-2-2-4l-3-2 5 1c3 2 4 2 5 1 3-2 2-2-2-4l-3-2 4 1c6 3 9 1 4-3l-2-1 6 1 3 2 3 3c2 1 2 1 0 1-5-2-5-2-6 0l-2 2c-4 1-3 3 1 5 6 2 9 0 4-3l-1-1c6 2 7 2 8 0 2-2 2-2 8 1l8 2 1 1-2 2c-2 0-1 3 2 5 2 1 3 1 1 1-5-2-8-1-8 0 0 2 9 5 10 3l1-2 1-1 2-1c1-1 2-2 4-1 4 1 4 1 1 2s-3 4 1 5h-2c-4 0-5 0-7 2-4 4-3 5 2 6 5 2 10-2 10-6l1-2c3 0 4-2 3-3v-2c6 0-33-18-69-32l-8-3-6 3A1622 1622 0 0 0 7 308c0 4 169 117 175 117l5-5zM52 312l-7-5v-4l1-4c0-2 3-1 7 2 6 5 8 5 15-2l3-2 2 4c4 5 4 4-3 9-11 9-10 9-19 2zm29-23-7-4 2-10 6 3c6 5 7 5 12 1s5-5 0-8c-2-1-3-2-3-4 1-3 2-3 8 0l5 4 3-2c7-3 7-6 3-9-3-2-4-5-2-7l6 3c6 4 7 4 12 0l3-3-4-3c-4-3-5-4-3-6 0-1 1-1 5 2 6 4 7 4 11 0 5-3 4-3 6 2 1 4-4 10-10 12l-2 1-6 5-9 8c-7 6-26 20-28 20l-8-5zm67-49c-8-4-8-4-6-8 1-5 1-5 7-2 6 4 5 4 9 1 5-3 4-4 0-6-5-2-5-2-4-4 1-1 2-1 6 2l6 3 3-2c4-3 4-5 0-7l-4-4c0-1 1-1 6 2 9 4 16-1 8-6-6-3-4-5 3-2 5 3 7 3 9 1 1-1 1-1 2 1 2 4 2 5-12 15l-19 15c-7 5-6 5-13 1zm47-37-5-3 2-7 5 3c5 3 7 3 9 0 2-2 2-3-2-4l-3-3c0-1 1-1 6 2 4 2 5 2 6 1 4-2 4-3-1-6-3-2-5-4-2-4l5 3c3 2 4 2 6 1 4-1 3-4-1-5l-3-3 5 1c3 2 4 2 6 1 3-1 3-3 1-4-4-1-4-2-3-4s1-2 5 0 6 2 7 1c3-1 3-2-2-4l-3-3 5 2c3 1 4 2 6 1s2-3-2-4c-2-1-2-2-2-3l5 2c3 1 5 2 6 1 4-2 2 4-3 8-9 8-10 8-14 8-3-1-3-1-3 2 0 2-2 4-11 10l-13 10c-3 3-6 3-13 0zm-17 173 8-9c6-6 5-8-9-14l-3-1-9 9c-11 11-11 11-3 16 10 5 10 5 16-1zm-14-25c17-18 16-16 7-21-8-4-5-6-23 11s-18 16-4 23c6 3 5 4 21-13zm40-7c0-2-14-9-16-9l-5 6c-5 6-5 6 6 11l7 3 4-5 4-6zm-65-2c13-12 12-12 4-17s-7-5-18 4c-16 14-16 13-6 19 8 6 8 6 21-6zm-23-12c10-10 10-10 5-13l-7-4-3-2-10 8c-12 11-12 10-3 16 8 5 8 6 18-5zm101 0c7-9 7-9-1-13s-9-4-17 5c-7 9-7 9 2 12 8 4 9 3 16-4zm-28-6c4-5 4-6-3-9-9-4-8-4-13 1-6 5-6 6-3 7l8 3c6 3 7 3 11-2zm-28-4c5-5 4-6-5-10-6-3-5-3-11 1-5 6-5 6 3 10s8 4 14-1zm-25-9c6-5 6-6-2-11l-7-3-5 4c-7 5-7 5 1 9 8 5 7 5 13 1zm100-5c15-15 41-50 41-54s-11-8-14-5l-52 60c0 2 12 7 14 7l10-8zm-35 4c4-4 4-5-2-8-8-4-10-4-14 0-5 5-4 6 3 9 8 4 9 4 13-1zm-27-4c5-5 5-6-3-9-8-4-8-4-13 0-4 5-4 5 3 9 8 5 8 5 13 0zm-23-9 4-4-2-2-7-4-5-2-5 3c-5 4-5 5 2 9 7 5 8 5 14 0zm62 0c4-4 3-6-5-9l-6-2-4 3c-5 5-5 5 3 9 7 3 8 2 12-1zm-26-4c4-5 4-6-4-9-8-4-6-4-11 0s-4 6 3 9c7 4 8 3 12 0zm-23-8c5-4 5-5-2-9s-8-4-13 0c-4 4-4 5 3 9s8 4 11 0zm59-1c3-4 3-5-3-7-10-4-21 3-11 7 8 4 12 4 15 0zm-24-3c3-4 3-5-3-8-7-4-7-4-11 0-5 4-4 5 2 8 8 4 9 4 12 0zm-21-9c4-4 4-4-4-8l-6-3-8 8 5 3c7 5 9 5 13 0zm56 1c4-4 3-4-5-7l-7-2-2 2c-4 4-4 5 3 8 7 2 8 2 11-1zm-25-3c5-5 5-5-3-8l-7-3-3 3c-5 3-4 5 3 8s6 4 10 0zm-20-8c3-3 2-4-4-8-6-3-6-3-11 1-4 3-4 3 2 7 8 3 10 4 12 0zm54 1c4-4 3-5-5-7l-7-2-2 3c-3 3-3 4 3 6 7 2 8 2 11 0zm-23-3c4-4 3-6-4-8-6-3-9-2-11 2-2 3-2 3 5 5 6 3 8 3 11 1zm-20-8c4-3 4-4-3-7-6-4-6-4-10 0-4 3-4 3 3 7s7 4 10 0zm52 1c3-4 2-5-9-8-4 0-9 4-7 6 4 4 13 5 16 2zm-22-3c4-3-3-9-9-9-2 0-7 4-7 5 0 3 13 7 16 4zm54-7c5-5 5-6-3-7-6-1-10 0-13 6-1 2 6 5 11 6l5-4zm-74 0c3-4 3-5-4-8l-5-2-3 2c-4 4-4 4 2 8 7 4 7 4 10 0zm49 1c3-3 1-5-4-7l-6-1-3 3c-3 3-3 3 4 5s7 2 9 0zm-21-3c3-3 3-4-3-7-6-2-10-1-11 3-1 1 7 5 12 6l2-2zm29-6c4-4-9-9-12-5s-3 5 2 6c7 1 8 1 10-1zm-48-1c4-2 3-4-3-6-7-3-6-3-10 0-3 3-3 3 4 6 6 2 6 2 9 0zm72 1c3-3 1-5-8-7-2-1-7 3-6 4 3 3 12 4 14 3zm-45-3c3-2 2-4-4-5-9-3-14 2-6 5 6 2 8 2 10 0zm28-6c0-3-10-5-13-3-4 2-3 3 3 5s10 1 10-2zm-46 0c2-3 2-4-4-6-6-3-7-3-9 0l-3 3 5 2c6 3 9 3 11 1zm69 0c2-2 0-4-5-5-9-2-12 2-4 5 6 2 8 2 9 0zm-43-2c3-5-9-9-13-5-3 3-3 3 3 5 5 2 8 2 10 0zm30-9c6-6 6-6 6-4l-1 3c-2 2-1 4 5 6l6 1 2-3c4-4 4-5-2-7-7-2-4-5 4-3 5 1 8 0 8-3l-12-3c-1 1-4 0-8-2l-6-3-6 6-9-4a265 265 0 0 1-19-10h-3c-2-1-2-1-1 1l-2 4-2 2 12 5 3-2c3-3 4-4 4-1l-4 5c-5 4-5 6-1 7 6 2 7 2 13-3 8-7 8-3 0 5-6 7-6 7 0 9 7 2 7 1 14-6zm-47 0-6-3-4-2-3 2c-3 3-3 4 4 7l5 2 3-3c1-1 2-2 1-3zm24 2c2-2 2-2-4-5-6-2-7-2-9 0-2 3-2 4 4 6 5 2 7 1 9-1zm-18-5c4-4-6-10-11-7-4 3-3 4 3 6 6 3 6 3 8 1zm7-7c4-2-5-8-9-6-4 1-4 3 0 5 5 2 7 2 9 1zm66-5c1-1 0-2-4-3l-4-2 4 1c4 2 8 1 9 0 1-2 0-3-8-5l-8-2-21-10c-6 0 1 6 7 6 4 1 5 4 1 5-6 2 1 7 8 6 2-1 2 0 2 1 0 5 13 8 14 3zm-33-6c0-3-8-5-11-4-3 2-2 3 3 5s8 1 8-1zm5-4c2-2 2-3-2-5-5-2-7-1-9 1-3 3 8 7 11 4zm-19-2c3-3-8-8-11-5-3 2-2 3 3 5s7 2 8 0zm5-4c3-2-1-5-6-7-2 0-7 3-4 4l4 2c3 2 4 2 6 1zm38-2c0-2-8-4-10-3-2 2-1 3 1 4 3 1 8 1 8-1zm-12-5v-2c1 1 5-1 4-3l2-1c3-1 3-3 0-5-4-2-8-2-8 1l-3 2-2 2c0 1 0 2-2 2-3 1-3 3 1 5 5 1 8 1 8-1zm-13-5c0-2-1-3-4-4-7-3-10 0-4 4 5 2 7 2 7 0z"/><g transform="matrix(.41 .1 -.1 .41 383 212)"><circle cx="-30" cy="148" r="366"/><circle cx="-30" cy="148" r="336" fill="#fede58"/><path d="M-72 447c-121-21-194-115-212-233v-8l-25-1-1-18h481c6 13 10 27 13 41 13 94-38 146-114 193-45 23-93 29-142 26z"/><path fill="#871945" d="M-25 429c52-6 98-28 138-62 28-25 46-56 51-87 4-20 1-57-5-70l-423-1c-2 56 39 118 74 157 31 34 72 54 116 63 11 2 38 2 49 0z"/><path d="M-321 124c-13-26-13-57-9-85 6-27 18-52 35-68 21-20 50-23 77-18 15 4 28 12 39 23 18 17 30 40 36 67 4 20 4 41 0 60l-6 21z"/><path fill="#fff" d="M-163 105c5-6 6-40 2-58-3-16-4-16-10-10a37 37 0 0 1-52 0 37 37 0 0 1 6-55l5-6c-1-4-22-8-34-7-42 4-58 40-66 77-3 17-1 53 4 59z"/><path d="M-19 125c-2-3-6-20-7-29-5-28-1-57 11-83C0-17 26-39 57-47c29-7 57 0 82 15 26 17 45 49 50 82 2 12 2 33 0 45-1 10-5 26-8 30z"/><path fill="#fff" d="M168 106c4-5 5-34 4-50-2-14-6-24-8-24l-6 5a37 37 0 0 1-58-9c-7-16-4-31 8-43l7-9-8-3C56-44 2-7-8 53c-3 15 0 43 3 53z"/><path fill="#f9bedd" d="M107 372S61 412 2 425c-66 15-114-7-114-7s14-76 93-95c76-18 126 49 126 49z"/></g><path d="M484 327c-30-15-49-47-81-59-12-3-26-4-37-12-8-13 8-27 2-40-7-16-21-26-28-41l-25-41c-1-14 22-15 26-3 11 19 22 38 35 55 5 5 9 17 16 18 22-8 52 2 59 26 3 15-6 32 4 45 12 16 32 22 44 38 4 8-5 19-14 14z"/></svg>